<?xml version="1.0" encoding="utf-8"?>
<!-- Svg Vector Icons : http://www.onlinewebfonts.com/icon -->
<!DOCTYPE svg PUBLIC "-//W3C//DTD SVG 1.1//EN" "http://www.w3.org/Graphics/SVG/1.1/DTD/svg11.dtd">
<svg class="svg-white" version="1.1" xmlns="http://www.w3.org/2000/svg" xmlns:xlink="http://www.w3.org/1999/xlink" x="0px" y="0px" viewBox="0 0 1000 1000" enable-background="new 0 0 1000 1000" xml:space="preserve">
<style>
    g {
        fill: white;
    }
</style>
<metadata> Svg Vector Icons : http://www.onlinewebfonts.com/icon </metadata>
<g><g transform="translate(0.000000,512.000000) scale(0.100000,-0.100000)"><path d="M2369.1,5005.5C1326.4,4865.5,446.6,4091.2,185.9,3083C-195.5,1620.5,730.3,154.2,2221.5-142.9c237.7-47.9,737.9-46,971.8,1.9C4126.8,52.6,4859,687,5163.7,1568.8c107.3,312.4,136.1,492.6,136.1,851c0,343.1-26.8,532.9-115,799.3c-300.9,906.6-1060,1579.4-1985.8,1759.6C3007.4,5017,2555,5030.4,2369.1,5005.5z M3160.7,4673.9c701.5-153.3,1282.3-600,1602.4-1232.5c166.8-335.4,228.1-607.6,228.1-1021.6c0-427.4-63.2-699.6-247.2-1054.2C4427.7,754.1,3860.3,322.9,3160.7,163.8c-195.5-44.1-716.9-44.1-912.4,0C1535.3,326.7,966,765.6,646,1400.1c-161,322-231.9,630.6-231.9,1019.7c0,300.9,23,452.4,107.3,713c185.9,575,611.4,1067.6,1163.4,1345.6c178.3,90.1,431.3,172.5,617.2,203.2c78.6,11.5,157.2,24.9,172.5,28.8C2545.4,4727.5,3034.2,4700.7,3160.7,4673.9z"/><path d="M2593.4,4236.8c-15.3-15.3-23-90.1-23-207v-185.9l-118.8-32.6c-247.2-69-412.1-201.3-509.8-410.2c-46-97.7-51.8-130.3-51.8-329.7c0-210.8,1.9-226.2,63.2-348.9c103.5-212.7,293.3-348.8,676.6-490.7c260.7-97.7,346.9-141.8,425.5-224.3c180.2-185.9,124.6-500.3-111.2-605.7c-122.7-57.5-358.4-49.8-484.9,13.4c-109.3,53.7-185.9,157.2-207,277.9c-26.8,168.7-1.9,153.3-243.4,147.6l-214.7-5.7l-5.7-82.4c-7.7-113.1,44.1-300.9,115-412.1c105.4-164.8,314.4-293.3,550.1-341.2l116.9-23V802.1c0-111.2,7.7-184,23-199.4c26.8-26.8,279.8-30.7,322-3.8c21.1,13.4,30.7,65.2,34.5,208.9l7.7,191.7l72.8,11.5c103.5,17.3,283.7,107.4,377.6,189.8c47.9,42.2,107.3,122.7,143.8,199.3c61.3,122.7,63.3,138,63.3,348.8s-1.9,226.2-63.3,348.9c-107.3,218.5-299,352.7-751.4,525.2c-214.7,82.4-360.3,174.4-408.3,254.9c-76.7,130.3-59.4,346.9,38.3,463.9c69,82.4,153.3,113.1,302.8,113.1c230,0,368-116.9,404.4-345c19.2-120.8,44.1-134.2,230-134.2c193.6,0,237.7,17.3,237.7,95.8c0,92-40.2,253-88.2,354.6c-84.3,182.1-308.6,356.5-490.7,387.2l-72.8,11.5v187.9c0,235.8-9.6,247.2-199.3,247.2C2671.9,4259.8,2606.8,4250.3,2593.4,4236.8z"/><path d="M6518.9,3878.4c-469.6-132.3-868.3-247.3-885.5-254.9c-19.2-7.7-34.5-30.7-34.5-51.7c0-36.4,1029.3-1502.7,1088.7-1548.7c55.6-46,63.3-32.6,212.8,391l63.3,174.4l107.3-36.4c161-55.6,473.4-212.8,626.8-316.3c208.9-139.9,295.2-216.6,415.9-368c207-260.7,320.1-567.4,339.3-933.5l11.5-210.8l69,172.5c408.3,1012,124.6,1941.7-753.3,2463c-86.3,53.7-230,124.6-314.3,157.2l-157.2,61.3l86.3,245.3c47.9,134.2,82.4,256.9,74.7,274.1c-5.7,15.3-30.7,26.8-53.7,26.8C7391,4121.8,6988.5,4012.6,6518.9,3878.4z"/><path d="M6969.3,405.3C5926.6,265.4,5046.8-509,4786.1-1517.2C4404.7-2979.7,5330.5-4446,6821.7-4743.1c237.7-47.9,737.9-46,971.8,1.9c933.5,193.6,1665.7,828,1970.4,1709.7c107.3,312.4,136.1,492.6,136.1,851c0,343.1-26.8,532.9-115,799.3C9484.1-474.5,8725,198.3,7799.2,378.4C7607.6,416.8,7155.2,430.2,6969.3,405.3z M7760.9,73.7c701.5-153.3,1282.3-600,1602.4-1232.5c166.7-335.4,228.1-607.6,228.1-1021.6c0-427.4-63.3-699.6-247.3-1054.2c-316.3-611.5-883.6-1042.7-1583.2-1201.8c-195.5-44.1-716.8-44.1-912.4,0c-713,162.9-1282.3,601.9-1602.4,1236.3c-161,322-231.9,630.6-231.9,1019.7c0,300.9,23,452.4,107.4,713C5307.5-892.4,5733-399.8,6285-121.8c178.2,90.1,431.3,172.5,617.2,203.2c78.6,11.5,157.2,24.9,172.5,28.8C7145.6,127.4,7634.4,100.5,7760.9,73.7z"/><path d="M7458.1-591.4c-504.1-90.1-960.3-435.1-1180.7-893.2l-67.1-139.9h-189.8c-151.4,0-195.5-5.8-226.2-32.6c-51.8-46-126.5-308.6-97.8-345c15.3-17.2,78.6-24.9,220.4-24.9h199.3v-153.3v-153.3h-147.6c-82.4,0-161-7.7-176.3-17.2c-40.3-26.8-122.7-327.8-95.8-358.4c17.2-21.1,84.3-26.8,270.3-26.8h247.2l40.3-90.1c21.1-51.8,84.3-161,141.8-247.2c452.4-686.2,1336-908.6,2089.3-529c65.2,32.6,122.7,72.8,130.4,90.1c19.2,49.8,13.4,427.4-5.8,440.8c-9.6,5.7-84.3-36.4-162.9-93.9c-329.6-235.8-726.4-299-1102.1-172.5c-268.3,90.1-511.8,277.9-647.9,500.3l-61.3,99.7l640.2,5.7c350.8,3.8,645.9,11.5,653.6,19.2c7.7,7.7,34.5,84.3,59.4,170.6c32.6,118.8,38.3,162.9,23,182.1c-17.3,21.1-159.1,26.8-755.2,26.8c-824.2,0-757.1-13.4-757.1,153.3c0,166.8-72.8,153.3,795.4,153.3c887.5,0,805-19.2,868.3,210.8c36.4,132.3,38.3,145.7,9.6,168.7c-24.9,17.3-210.8,23-776.3,23c-408.3,0-743.7,7.7-743.7,15.3c0,36.4,120.8,199.4,220.4,299c138,134.2,283.7,224.3,479.2,291.4c132.3,46,184,53.7,373.8,53.7c201.3,0,235.8-5.8,392.9-61.3c253-92,237.7-97.8,289.4,90.1c23,88.2,38.3,170.6,32.6,185.9c-9.6,26.8-161,88.2-331.6,134.2C7979.4-579.9,7599.9-566.5,7458.1-591.4z"/><path d="M1520-666.2c-205.1-525.2-230-1096.4-67.1-1514.2c193.6-492.6,642.1-912.4,1199.9-1121.3c49.8-19.2,90.1-40.2,90.1-47.9s-34.5-109.3-76.7-228.1c-84.3-233.8-93.9-308.6-46-308.6c55.6,0,1759.6,481.1,1805.6,509.8c23,15.4,42.2,36.4,42.2,49.9c0,23-1058,1512.3-1098.3,1544.9c-44.1,38.3-72.8-9.6-168.7-274.1c-51.8-145.7-97.8-270.3-103.5-274.1c-34.5-34.5-481.1,168.7-726.4,329.7c-283.7,185.9-461.9,375.7-592.3,634.4c-95.8,193.6-143.8,369.9-172.5,632.5l-23,228.1L1520-666.2z"/></g></g>
</svg>
